<svg xmlns="http://www.w3.org/2000/svg" width="1080" height="442" viewBox="0 0 1080 442" role="img" aria-labelledby="title description"><title id="title">Catalogue values outside runtime normalisation ranges</title><desc id="description">Percentage of usable tracks clamped when feature vectors are built.</desc><rect width="1080" height="442" fill="#ffffff"/><text x="40" y="44" font-size="25" font-weight="700" fill="#17314a">Catalogue values outside runtime normalisation ranges</text><text x="40" y="72" font-size="14" fill="#17314a">Percentage of usable tracks clamped when feature vectors are built.</text><text x="288" y="119" text-anchor="end" font-size="13" fill="#17314a">tempo</text><line x1="300" y1="135" x2="1000" y2="135" stroke="#d9e1e8"/><rect x="300" y="105" width="13.25" height="13" rx="2" fill="#2864a7"/><text x="319.25" y="116" font-size="11" fill="#17314a">0.040%</text><text x="288" y="153" text-anchor="end" font-size="13" fill="#17314a">energy</text><line x1="300" y1="169" x2="1000" y2="169" stroke="#d9e1e8"/><rect x="300" y="139" width="0.00" height="13" rx="2" fill="#2864a7"/><text x="306.00" y="150" font-size="11" fill="#17314a">0.000%</text><text x="288" y="187" text-anchor="end" font-size="13" fill="#17314a">valence</text><line x1="300" y1="203" x2="1000" y2="203" stroke="#d9e1e8"/><rect x="300" y="173" width="0.00" height="13" rx="2" fill="#2864a7"/><text x="306.00" y="184" font-size="11" fill="#17314a">0.000%</text><text x="288" y="221" text-anchor="end" font-size="13" fill="#17314a">danceability</text><line x1="300" y1="237" x2="1000" y2="237" stroke="#d9e1e8"/><rect x="300" y="207" width="0.00" height="13" rx="2" fill="#2864a7"/><text x="306.00" y="218" font-size="11" fill="#17314a">0.000%</text><text x="288" y="255" text-anchor="end" font-size="13" fill="#17314a">acousticness</text><line x1="300" y1="271" x2="1000" y2="271" stroke="#d9e1e8"/><rect x="300" y="241" width="0.00" height="13" rx="2" fill="#2864a7"/><text x="306.00" y="252" font-size="11" fill="#17314a">0.000%</text><text x="288" y="289" text-anchor="end" font-size="13" fill="#17314a">instrumentalness</text><line x1="300" y1="305" x2="1000" y2="305" stroke="#d9e1e8"/><rect x="300" y="275" width="0.00" height="13" rx="2" fill="#2864a7"/><text x="306.00" y="286" font-size="11" fill="#17314a">0.000%</text><text x="288" y="323" text-anchor="end" font-size="13" fill="#17314a">loudness</text><line x1="300" y1="339" x2="1000" y2="339" stroke="#d9e1e8"/><rect x="300" y="309" width="700.00" height="13" rx="2" fill="#2864a7"/><text x="1006.00" y="320" font-size="11" fill="#17314a">2.121%</text><text x="288" y="357" text-anchor="end" font-size="13" fill="#17314a">speechiness</text><line x1="300" y1="373" x2="1000" y2="373" stroke="#d9e1e8"/><rect x="300" y="343" width="0.00" height="13" rx="2" fill="#2864a7"/><text x="306.00" y="354" font-size="11" fill="#17314a">0.000%</text><rect x="40" y="411" width="12" height="12" fill="#2864a7"/><text x="58" y="422" font-size="12" fill="#17314a">clamped_percent</text></svg>
