<svg xmlns="http://www.w3.org/2000/svg" width="1080" height="362" viewBox="0 0 1080 362" role="img" aria-labelledby="title description"><title id="title">CBF configuration comparison</title><desc id="description">Fixed-pool diagnostic proxies; higher values indicate closer history fit or broader coverage.</desc><rect width="1080" height="362" fill="#ffffff"/><text x="40" y="44" font-size="25" font-weight="700" fill="#17314a">CBF configuration comparison</text><text x="40" y="72" font-size="14" fill="#17314a">Fixed-pool diagnostic proxies; higher values indicate closer history fit or broader coverage.</text><text x="288" y="119" text-anchor="end" font-size="13" fill="#17314a">current_cosine</text><line x1="300" y1="149" x2="1000" y2="149" stroke="#d9e1e8"/><rect x="300" y="105" width="602.25" height="13" rx="2" fill="#2864a7"/><text x="908.25" y="116" font-size="11" fill="#17314a">0.860</text><rect x="300" y="123" width="54.60" height="13" rx="2" fill="#c77720"/><text x="360.60" y="134" font-size="11" fill="#17314a">0.078</text><text x="288" y="167" text-anchor="end" font-size="13" fill="#17314a">current_euclidean</text><line x1="300" y1="197" x2="1000" y2="197" stroke="#d9e1e8"/><rect x="300" y="153" width="614.93" height="13" rx="2" fill="#2864a7"/><text x="920.93" y="164" font-size="11" fill="#17314a">0.878</text><rect x="300" y="171" width="56.00" height="13" rx="2" fill="#c77720"/><text x="362.00" y="182" font-size="11" fill="#17314a">0.080</text><text x="288" y="215" text-anchor="end" font-size="13" fill="#17314a">equal_cosine</text><line x1="300" y1="245" x2="1000" y2="245" stroke="#d9e1e8"/><rect x="300" y="201" width="605.00" height="13" rx="2" fill="#2864a7"/><text x="911.00" y="212" font-size="11" fill="#17314a">0.864</text><rect x="300" y="219" width="56.00" height="13" rx="2" fill="#c77720"/><text x="362.00" y="230" font-size="11" fill="#17314a">0.080</text><text x="288" y="263" text-anchor="end" font-size="13" fill="#17314a">equal_euclidean</text><line x1="300" y1="293" x2="1000" y2="293" stroke="#d9e1e8"/><rect x="300" y="249" width="619.53" height="13" rx="2" fill="#2864a7"/><text x="925.53" y="260" font-size="11" fill="#17314a">0.885</text><rect x="300" y="267" width="56.00" height="13" rx="2" fill="#c77720"/><text x="362.00" y="278" font-size="11" fill="#17314a">0.080</text><rect x="40" y="331" width="12" height="12" fill="#2864a7"/><text x="58" y="342" font-size="12" fill="#17314a">history_match</text><rect x="215" y="331" width="12" height="12" fill="#c77720"/><text x="233" y="342" font-size="12" fill="#17314a">coverage</text></svg>
